HIERARCHY
ROOT Hips
{
	OFFSET 0.000000 88.474243 0.000000
	CHANNELS 6 Xposition Yposition Zposition Zrotation Yrotation Xrotation 
	JOINT Hips_Spine
	{
		OFFSET 0.000000 0.000000 0.000000
		CHANNELS 3 Zrotation Yrotation Xrotation
		JOINT Spine
		{
			OFFSET 0.005100 8.711998 -0.691000
			CHANNELS 3 Zrotation Yrotation Xrotation
			JOINT Spine1
			{
				OFFSET -0.009200 8.660301 -1.275000
				CHANNELS 3 Zrotation Yrotation Xrotation
				JOINT Spine2
				{
					OFFSET 0.006300 9.852501 -1.857000
					CHANNELS 3 Zrotation Yrotation Xrotation
					JOINT Spine2_Neck
					{
						OFFSET 0.000000 0.000000 0.000000
						CHANNELS 3 Zrotation Yrotation Xrotation
						JOINT Neck
						{
							OFFSET 0.016300 11.420799 -0.263300
							CHANNELS 3 Zrotation Yrotation Xrotation
							End Site #name: Head
							{
								OFFSET -0.019200 9.262405 2.362500
							}
						}
					}
					JOINT Spine2_LeftShoulder
					{
						OFFSET 0.000000 0.000000 0.000000
						CHANNELS 3 Zrotation Yrotation Xrotation
						JOINT LeftShoulder
						{
							OFFSET 5.616900 6.732201 -0.345700
							CHANNELS 3 Zrotation Yrotation Xrotation
							JOINT LeftArm
							{
								OFFSET 10.664888 -0.183372 -2.440700
								CHANNELS 3 Zrotation Yrotation Xrotation
								JOINT LeftForeArm
								{
									OFFSET 27.459126 0.000000 0.000000
									CHANNELS 3 Zrotation Yrotation Xrotation
									End Site #name: LeftHand
									{
										OFFSET 21.306858 0.000000 0.000000
									}
								}
							}
						}
					}
					JOINT Spine2_RightShoulder
					{
						OFFSET 0.000000 0.000000 0.000000
						CHANNELS 3 Zrotation Yrotation Xrotation
						JOINT RightShoulder
						{
							OFFSET -5.580300 6.737503 -0.344400
							CHANNELS 3 Zrotation Yrotation Xrotation
							JOINT RightArm
							{
								OFFSET -10.679335 -0.188484 -2.383900
								CHANNELS 3 Zrotation Yrotation Xrotation
								JOINT RightForeArm
								{
									OFFSET -27.503529 0.000000 0.000000
									CHANNELS 3 Zrotation Yrotation Xrotation
									End Site #name: RightHand
									{
										OFFSET -21.306808 0.000000 0.000000
									}
								}
							}
						}
					}
				}
			}
		}
	}
	JOINT Hips_LeftUpLeg
	{
		OFFSET 0.000000 0.000000 0.000000
		CHANNELS 3 Zrotation Yrotation Xrotation
		JOINT LeftUpLeg
		{
			OFFSET 6.857700 -6.739601 0.312100
			CHANNELS 3 Zrotation Yrotation Xrotation
			JOINT LeftLeg
			{
				OFFSET -0.367590 -34.731552 -4.572400
				CHANNELS 3 Zrotation Yrotation Xrotation
				End Site #name: LeftFoot
				{
					OFFSET 0.367590 -34.656704 -6.067400
				}
			}
		}
	}
	JOINT Hips_RightUpLeg
	{
		OFFSET 0.000000 0.000000 0.000000
		CHANNELS 3 Zrotation Yrotation Xrotation
		JOINT RightUpLeg
		{
			OFFSET -6.876100 -6.733299 0.301000
			CHANNELS 3 Zrotation Yrotation Xrotation
			JOINT RightLeg
			{
				OFFSET 0.347353 -34.795158 -4.515900
				CHANNELS 3 Zrotation Yrotation Xrotation
				End Site #name: RightFoot
				{
					OFFSET -0.347353 -34.589367 -6.070300
				}
			}
		}
	}
}
MOTION
Frames: 7
Frame Time: 0.041667
-0.060227 0.067379 0.015407 -3.876292 0.630988 -2.477424 -0.000000 0.000000 0.000000 -0.693765 0.845584 5.700617 -1.659062 1.324224 9.838246 0.000000 0.000000 0.000000 -1.916145 1.236746 9.332205 -1.103372 -3.637761 4.171262 -1.979420 1.194444 10.069078 -0.875574 -0.826977 0.279336 -68.891011 -24.427411 20.562750 171.006661 -85.709188 -171.220485 -1.859901 1.719539 10.701699 -4.790200 -0.496870 1.327501 76.860531 -5.289062 5.026198 175.746376 83.796556 177.609401 0.000000 -0.000000 0.000000 7.225483 1.433637 -19.351999 -1.236683 0.415724 33.305787 -0.000000 0.000000 -0.000000 -3.875123 -2.600772 -15.758849 -0.362193 -2.114995 27.189761 
0.042822 0.090933 0.144552 -4.966517 -3.742767 -2.053988 -0.000000 0.000000 0.000000 -0.724371 0.448529 5.325118 -2.080486 1.431172 10.275219 0.000000 0.000000 0.000000 -1.833341 1.325655 10.205381 -1.906569 -4.026484 5.418891 -2.028123 1.508328 10.592037 0.729048 1.118473 -0.192227 -68.811178 -23.013433 31.545378 179.658278 -82.992792 -179.707345 -1.933123 1.195214 10.205665 -5.568722 -2.332059 0.655822 82.496228 -7.991477 5.918571 -167.290377 87.122129 -167.502112 0.000000 -0.000000 0.000000 7.354273 0.112129 -22.731816 -0.685855 0.804440 32.517407 0.000000 0.000000 -0.000000 -2.766080 -3.556454 -16.633367 0.945079 -0.512405 26.586484 
0.195688 0.090126 0.159915 -4.607611 -6.248805 -2.582052 -0.000000 -0.000000 -0.000000 -0.700452 0.443282 5.101575 -2.158094 1.372518 10.124378 0.000000 0.000000 0.000000 -2.124430 1.525289 10.878583 -1.753955 -3.554366 4.727323 -1.847440 1.601981 10.318394 0.964264 0.694316 -0.167861 -70.544554 -17.697810 33.131797 -177.935508 -82.058589 177.790736 -2.036130 1.386989 10.151542 -4.115992 -2.131152 0.801213 81.367409 -8.041004 8.722750 -167.234906 86.939255 -167.499501 0.000000 -0.000000 0.000000 7.680193 0.824079 -22.982904 -0.797732 0.501843 33.746826 0.000000 0.000000 -0.000000 -2.368346 -3.544882 -16.896707 0.610995 -0.896707 25.870278 
0.300772 0.055965 0.147408 -4.303997 -7.160369 -2.820327 -0.000000 -0.000000 -0.000000 -0.601076 0.529139 4.895523 -2.060683 1.515912 10.080616 0.000000 0.000000 0.000000 -1.967780 1.608808 10.349975 -1.759727 -3.776925 5.134993 -1.892644 1.633050 10.191816 1.754184 0.442336 0.021445 -71.122880 -17.125536 32.656652 -177.380503 -83.196282 177.275018 -2.072267 1.545160 10.029025 -4.189522 -1.478371 1.216283 79.887593 -7.242843 9.317744 -169.447276 85.217054 -169.934277 0.000000 -0.000000 0.000000 7.576468 1.086590 -23.278612 -1.121832 0.477230 34.430381 0.000000 0.000000 0.000000 -1.887380 -3.267080 -17.366201 0.510952 -0.673301 26.531451 
0.376731 0.049263 0.195797 -4.435432 -6.749086 -2.785375 -0.000000 -0.000000 -0.000000 -0.554901 0.641399 4.944670 -1.967294 1.538519 9.928307 0.000000 0.000000 0.000000 -1.903419 1.592103 9.928915 -1.588322 -3.882806 5.174117 -1.951520 1.617337 9.977078 1.965433 0.346704 0.175574 -71.286080 -18.128800 32.015073 -175.380312 -84.119516 175.606462 -2.057296 1.577704 9.967815 -4.228155 -2.075334 1.330196 79.421753 -8.096437 8.151013 -167.211649 85.155297 -167.775427 0.000000 -0.000000 0.000000 7.099314 1.093774 -22.935942 -1.152630 0.615912 34.238878 -0.000000 0.000000 0.000000 -1.921752 -3.204190 -17.539021 0.496811 -0.545021 26.743235 
0.468186 0.062409 0.276141 -4.674961 -5.792948 -2.781410 -0.000000 -0.000000 0.000000 -0.532414 0.734315 4.966929 -1.874602 1.478091 9.726345 0.000000 0.000000 0.000000 -1.855802 1.503495 9.739162 -1.368556 -3.740995 5.054185 -1.940132 1.539956 9.742163 1.888513 0.482958 0.205744 -71.635298 -18.736166 31.186548 -174.434174 -84.724031 174.679509 -2.026052 1.545752 9.919144 -4.536269 -2.541636 1.282608 79.701630 -8.927097 7.128373 -166.805272 85.351485 -167.315240 0.000000 -0.000000 0.000000 6.795904 1.156219 -22.520970 -1.176298 0.686789 33.819881 -0.000000 -0.000000 0.000000 -2.287591 -3.267692 -17.216818 0.443926 -0.681496 26.341295 
0.574404 0.085630 0.359123 -4.887833 -5.257715 -2.703343 -0.000000 -0.000000 0.000000 -0.555187 0.750003 4.989656 -1.870368 1.479763 9.726758 0.000000 0.000000 0.000000 -1.859159 1.435478 9.712203 -1.117493 -3.571420 4.989669 -1.906893 1.477570 9.596112 1.690659 0.727323 0.149483 -71.529454 -19.387314 30.135554 -175.849560 -83.957000 176.036000 -1.952684 1.496527 9.842840 -4.666683 -2.378120 1.195395 80.182086 -9.170658 6.889139 -168.256597 85.343642 -168.618303 0.000000 -0.000000 0.000000 6.642404 1.172575 -21.983128 -1.146552 0.685986 33.447624 -0.000000 -0.000000 0.000000 -2.878652 -3.272003 -16.759594 0.394761 -0.850043 25.881715 
